#!OML:ASF E:\Steps\Project 1\Capture day 1\Session 2\Subject.ASF
:FULLY-SPECIFIED
:DEGREES
68
root 16.35 16.3397 20.7464 -155.376 -2.50966 176.049
lowerback -30.657 -2.75586 -9.19451
upperback -0.691534 -0.940164 -0.509884
thorax 15.3943 -1.32152 3.95837
lowerneck -6.23012 -2.31048 -1.00027
upperneck 0.543504 -3.19645 4.09713
head 1.31441 -1.56231 1.35458
rclavicle -3.926e-015 -2.98177e-014
rhumerus -35.6715 -23.1643 -75.6418
rradius 26.0364
rwrist 2.8441
rhand -8.87157 -411.006
rfingers 7.12502
rthumb 17.0701 279.724
lclavicle -3.926e-015 -2.98177e-014
lhumerus -29.182 6.51603 80.3178
lradius 19.0428
lwrist -7.32884
lhand -22.5299 -12.3595
lfingers 7.12502
lthumb 3.89707 17.5846
rfemur -21.5916 8.25978 17.1514
rtibia 6.18683
rfoot -17.4849 -3.29903
rtoes -18.1283
lfemur -22.6596 -11.1075 -23.4631
ltibia 9.81114
lfoot -8.21026 -2.69851
ltoes -33.7646
69
root 16.351 16.3389 20.747 -155.371 -2.49954 176.078
lowerback -30.6546 -2.74027 -9.15517
upperback -0.666555 -0.9307 -0.482577
thorax 15.4231 -1.315 3.97213
lowerneck -6.12034 -2.24948 -1.27282
upperneck 0.276423 -3.10445 4.43617
head 1.22133 -1.51981 1.51433
rclavicle -1.2921e-015 -6.36111e-015
rhumerus -35.6188 -23.365 -75.457
rradius 25.8228
rwrist 2.86815
rhand -8.68657 -410.9
rfingers 7.12502
rthumb 17.2481 279.845
lclavicle -1.2921e-015 -6.36111e-015
lhumerus -29.0869 6.66897 80.2621
lradius 18.8007
lwrist -7.21124
lhand -22.2764 -12.6271
lfingers 7.12502
lthumb 4.14187 17.3124
rfemur -21.7093 8.23437 17.2014
rtibia 6.40693
rfoot -17.6284 -3.28889
rtoes -18.0659
lfemur -22.6816 -11.0761 -23.4304
ltibia 9.83512
lfoot -8.26201 -2.67713
ltoes -34.27
70
root 16.3515 16.3385 20.7468 -155.389 -2.53714 176.131
lowerback -30.6643 -2.70835 -9.05502
upperback -0.598243 -0.905676 -0.497334
thorax 15.5061 -1.29698 3.91349
lowerneck -6.00439 -2.14566 -1.5516
upperneck -0.0794367 -2.95986 4.89235
head 1.09976 -1.45337 1.71534
rclavicle -3.08116e-015 2.74323e-014
rhumerus -35.5349 -23.6657 -75.4052
rradius 25.6597
rwrist 3.14252
rhand -8.6852 -410.955
rfingers 7.12502
rthumb 17.2494 279.79
lclavicle -3.08116e-015 2.74323e-014
lhumerus -28.9131 6.87861 80.1002
lradius 18.5284
lwrist -7.29413
lhand -21.9269 -13.0965
lfingers 7.12502
lthumb 4.47937 16.8362
rfemur -21.7591 8.19548 17.2948
rtibia 6.56111
rfoot -17.8021 -3.27874
rtoes -18.5874
lfemur -22.6714 -11.0675 -23.3605
ltibia 9.8491
lfoot -8.25165 -2.66645
ltoes -34.2822
71
root 16.3521 16.3383 20.7472 -155.424 -2.57041 176.188
lowerback -30.6274 -2.67224 -8.93837
upperback -0.580302 -0.895256 -0.511821
thorax 15.5099 -1.28216 3.84096
lowerneck -5.92309 -2.10703 -1.68893
upperneck -0.211518 -2.90298 5.07252
head 1.04862 -1.42733 1.80013
rclavicle -6.75868e-015 6.75868e-015
rhumerus -35.5966 -23.8233 -75.3518
rradius 25.5621
rwrist 3.33522
rhand -9.03878 -411.909
rfingers 7.12502
rthumb 16.9091 278.807
lclavicle -6.75868e-015 6.75868e-015
lhumerus -28.9153 7.15802 79.8858
lradius 18.3729
lwrist -7.63903
lhand -21.6577 -12.9526
lfingers 7.12502
lthumb 4.73925 16.9744
rfemur -21.6861 8.23853 17.3662
rtibia 6.50044
rfoot -17.7512 -3.2762
rtoes -18.5919
lfemur -22.6127 -11.0555 -23.2843
ltibia 9.74582
lfoot -8.15418 -2.73139
ltoes -33.1482
72
root 16.3535 16.3379 20.7492 -155.453 -2.58819 176.239
lowerback -30.5467 -2.63302 -8.79986
upperback -0.598403 -0.897571 -0.541254
thorax 15.452 -1.26945 3.73563
lowerneck -5.95619 -2.14859 -1.65376
upperneck -0.168822 -2.96109 5.04647
head 1.0687 -1.45541 1.78351
rclavicle -6.4605e-016 -1.39149e-014
rhumerus -35.6602 -23.7727 -75.3602
rradius 25.4466
rwrist 3.23826
rhand -9.1787 -412.195
rfingers 7.12502
rthumb 16.7744 278.51
lclavicle -6.4605e-016 -1.39149e-014
lhumerus -29.0163 7.39254 79.6385
lradius 18.2632
lwrist -8.09918
lhand -21.7511 -13.1585
lfingers 7.12502
lthumb 4.64915 16.7705
rfemur -21.6337 8.28631 17.427
rtibia 6.44775
rfoot -17.6952 -3.31826
rtoes -18.6333
lfemur -22.5503 -11.0983 -23.2012
ltibia 9.60522
lfoot -8.04677 -2.71282
ltoes -32.3018
